<?xml version="1.0" standalone="no"?>
<!DOCTYPE svg PUBLIC "-//W3C//DTD SVG 20010904//EN"
 "http://www.w3.org/TR/2001/REC-SVG-20010904/DTD/svg10.dtd">
<svg version="1.0" xmlns="http://www.w3.org/2000/svg"
 width="2048.000000pt" height="2048.000000pt" viewBox="0 0 2048.000000 2048.000000"
 preserveAspectRatio="xMidYMid meet">

<g transform="translate(0.000000,2048.000000) scale(0.100000,-0.100000)"
fill="#000000" stroke="none">
<path d="M5018 16843 c7 -3 16 -2 19 1 4 3 -2 6 -13 5 -11 0 -14 -3 -6 -6z"/>
<path d="M15718 16833 c7 -3 16 -2 19 1 4 3 -2 6 -13 5 -11 0 -14 -3 -6 -6z"/>
<path d="M4728 16813 c18 -2 45 -2 60 0 15 2 0 4 -33 4 -33 0 -45 -2 -27 -4z"/>
<path d="M5928 16813 c204 -2 540 -2 745 0 204 1 37 2 -373 2 -410 0 -577 -1
-372 -2z"/>
<path d="M7093 16813 c9 -2 23 -2 30 0 6 3 -1 5 -18 5 -16 0 -22 -2 -12 -5z"/>
<path d="M15876 16813 c60 -3 75 -8 94 -28 13 -14 27 -25 32 -25 5 0 -7 14
-25 30 -32 28 -40 30 -103 28 l-69 -2 71 -3z"/>
<path d="M16030 16750 c8 -5 20 -10 25 -10 6 0 3 5 -5 10 -8 5 -19 10 -25 10
-5 0 -3 -5 5 -10z"/>
<path d="M16130 16710 c8 -5 20 -10 25 -10 6 0 3 5 -5 10 -8 5 -19 10 -25 10
-5 0 -3 -5 5 -10z"/>
<path d="M16171 16696 c10 -9 169 -86 169 -81 0 5 -156 85 -166 85 -4 0 -5 -2
-3 -4z"/>
<path d="M16350 16606 c0 -3 9 -10 20 -16 11 -6 20 -8 20 -6 0 3 -9 10 -20 16
-11 6 -20 8 -20 6z"/>
<path d="M16400 16576 c0 -3 9 -10 20 -16 11 -6 20 -8 20 -6 0 3 -9 10 -20 16
-11 6 -20 8 -20 6z"/>
<path d="M16894 16520 c-5 -5 -27 -13 -48 -17 -22 -5 -41 -14 -42 -21 -1 -7 0
-8 3 -2 7 15 23 12 23 -5 0 -17 -25 -20 -35 -5 -4 6 -10 8 -15 5 -5 -3 -16 2
-24 11 -12 12 -20 13 -30 5 -7 -6 -15 -8 -19 -5 -3 3 -15 -8 -28 -25 -33 -44
-46 -45 -97 -4 -63 50 -72 56 -72 51 0 -3 37 -33 83 -69 267 -206 496 -518
607 -829 13 -36 31 -74 42 -86 11 -13 18 -36 18 -61 0 -23 10 -94 21 -160 31
-169 31 -421 1 -593 l-22 -125 4 -4610 c3 -2536 6 -4639 7 -4675 1 -36 -1
-154 -6 -263 -8 -197 -8 -198 -34 -220 -17 -14 -37 -51 -54 -102 -40 -114
-136 -306 -203 -405 -329 -487 -849 -796 -1449 -861 -119 -13 -420 -6 -515 11
-36 7 -1766 10 -5106 9 -3317 0 -5058 3 -5070 9 -11 6 -59 18 -109 28 -211 40
-493 153 -673 270 -504 328 -807 812 -863 1379 -14 140 0 588 19 607 7 7 107
16 249 24 350 19 317 22 348 -31 69 -117 220 -184 352 -156 292 64 391 458
170 675 -135 131 -350 128 -474 -7 -22 -24 -44 -51 -50 -61 -8 -15 -43 -19
-292 -32 -172 -9 -287 -12 -293 -6 -5 5 -6 211 -2 515 l7 506 41 5 c23 3 102
8 176 11 74 3 171 8 216 11 l81 6 13 -31 c19 -47 98 -120 160 -150 74 -35 201
-37 272 -4 245 113 295 482 90 664 -73 65 -122 83 -222 84 -73 0 -93 -4 -141
-27 -51 -26 -102 -69 -147 -127 -21 -27 -31 -28 -404 -46 l-138 -6 0 530 0
530 53 5 c58 6 460 26 523 26 34 0 43 -4 52 -24 6 -14 28 -44 49 -67 115 -127
290 -151 434 -58 131 84 198 272 155 439 -31 119 -98 202 -204 253 -58 27 -70
29 -146 25 -123 -6 -205 -52 -276 -154 -16 -23 -65 -28 -508 -50 l-132 -6 2
558 3 559 304 15 303 15 31 -45 c67 -100 153 -151 268 -158 213 -13 369 151
369 386 0 169 -77 295 -217 359 -43 20 -73 26 -132 27 -68 1 -85 -3 -143 -32
-60 -29 -108 -71 -148 -129 -14 -20 -27 -22 -250 -32 -129 -6 -270 -14 -312
-18 l-78 -6 0 512 0 511 33 0 c17 0 149 7 292 15 356 20 319 23 350 -30 86
-147 279 -204 433 -129 234 115 281 460 89 648 -135 131 -350 127 -475 -8 -21
-23 -43 -50 -49 -60 -8 -15 -34 -19 -189 -27 -304 -17 -486 -24 -489 -20 -2 2
-4 239 -4 527 l-1 524 22 4 c13 3 142 10 288 17 250 11 265 11 275 -6 49 -85
131 -154 210 -177 57 -16 152 -14 211 6 30 10 73 36 105 65 150 134 177 364
63 537 -73 110 -172 160 -303 152 -109 -7 -186 -50 -261 -145 l-25 -32 -175
-10 c-96 -6 -227 -12 -290 -13 l-115 -3 -3 498 c-2 393 0 498 10 502 7 2 141
9 297 17 l284 13 31 -46 c69 -101 154 -150 271 -157 98 -5 170 19 238 79 200
175 166 528 -62 653 -146 79 -336 35 -433 -100 -27 -38 -36 -44 -67 -44 -20 0
-153 -7 -295 -15 -143 -7 -263 -12 -268 -9 -12 7 -10 298 2 310 5 5 17 63 25
129 32 243 114 483 236 683 42 70 45 77 26 66 -7 -4 -9 -3 -4 2 5 5 14 9 20 9
5 0 12 6 15 14 3 9 0 11 -9 6 -8 -5 -11 -4 -6 1 5 5 12 9 17 9 4 0 29 29 56
65 27 36 102 121 168 190 l120 125 -110 -108 c-90 -88 -112 -105 -123 -95 -11
11 -13 9 -8 -12 5 -22 3 -26 -20 -28 -34 -3 -39 -8 -24 -26 10 -12 7 -22 -19
-55 l-32 -40 -36 20 c-36 18 -37 18 -43 0 -9 -24 -38 -34 -55 -20 -8 6 -21 9
-29 5 -10 -4 -29 7 -52 29 -44 43 -54 44 -49 4 3 -21 0 -29 -9 -25 -15 5 -25
-14 -25 -50 0 -20 -9 -45 -28 -74 -2 -2 -8 2 -13 10 -8 11 -9 10 -4 -8 5 -19
2 -23 -24 -28 -34 -7 -48 -36 -36 -73 5 -16 2 -21 -10 -21 -11 0 -15 -5 -11
-15 3 -8 -2 -21 -10 -30 -8 -8 -12 -19 -9 -25 4 -6 -8 -15 -25 -22 -25 -8 -31
-15 -26 -31 5 -21 -14 -47 -36 -47 -17 0 -78 -74 -78 -94 0 -9 -4 -16 -10 -16
-5 0 -10 -7 -10 -15 0 -8 -6 -12 -13 -10 -6 3 -17 -5 -22 -17 -8 -18 -18 -23
-42 -22 -30 1 -33 -1 -33 -27 0 -35 -12 -43 -29 -20 -13 17 -15 17 -32 3 -13
-11 -19 -30 -19 -55 0 -27 -8 -48 -25 -69 -14 -16 -25 -26 -25 -21 -1 21 -20
-25 -20 -48 0 -28 -35 -48 -43 -25 -3 6 -8 -2 -12 -19 -4 -16 -10 -34 -13 -40
-3 -5 -7 -22 -9 -39 -2 -16 -7 -34 -12 -40 -5 -6 -11 -20 -14 -31 -4 -16 -5
-15 -6 6 0 14 3 29 8 35 13 14 21 83 10 90 -5 3 -7 15 -4 27 5 17 4 19 -4 7
-6 -8 -11 -29 -11 -47 0 -17 -4 -34 -9 -38 -6 -3 -13 -27 -16 -53 -4 -26 -11
-58 -16 -72 -5 -14 -11 -50 -14 -80 -3 -30 -9 -80 -15 -110 -14 -75 -20 -124
-24 -198 -4 -65 -12 -85 -24 -65 -4 6 -8 -20 -8 -58 -1 -49 -7 -75 -18 -88 -9
-10 -16 -27 -16 -39 0 -22 -15 -31 -22 -12 -1 5 -4 -20 -5 -58 -3 -135 -15
-357 -19 -361 -2 -2 -10 2 -18 8 -12 10 -15 6 -21 -19 -5 -22 -11 -30 -21 -26
-20 8 -29 -20 -15 -50 13 -29 0 -64 -24 -64 -11 0 -15 -14 -16 -52 -1 -29 -2
-57 -4 -63 -1 -5 -3 -14 -3 -19 -1 -6 -9 -1 -17 10 -11 14 -15 15 -14 4 5 -51
-2 -121 -12 -118 -13 4 -23 105 -11 112 4 3 6 21 4 42 -8 66 -24 11 -28 -95
-2 -53 -9 -126 -15 -162 -9 -59 -13 -66 -30 -62 -19 5 -27 -11 -9 -22 6 -4 6
-15 0 -31 -6 -14 -10 -39 -10 -57 0 -18 -2 -45 -4 -62 -2 -16 -5 -42 -5 -57
-1 -20 -5 -25 -19 -21 -16 4 -19 -2 -20 -49 -1 -45 -4 -91 -11 -167 -1 -10 -4
-11 -10 -5 -6 5 -11 64 -12 132 -2 93 -5 122 -15 122 -16 0 -29 -43 -21 -65 4
-8 2 -17 -2 -20 -5 -3 -8 -21 -6 -41 2 -20 0 -46 -5 -59 -5 -12 -5 -39 0 -61
11 -48 6 -53 -23 -26 l-22 21 -2 -72 c-2 -84 -1 -78 -12 -96 -7 -12 -13 -12
-24 -3 -12 10 -14 4 -16 -41 -3 -75 -7 -92 -22 -89 -39 10 -45 40 -26 146 1 5
-4 11 -10 13 -9 3 -13 -5 -13 -24 0 -15 -5 -45 -11 -66 l-10 -38 -26 21 c-14
11 -30 20 -34 20 -5 0 -9 -26 -9 -58 0 -31 -4 -72 -9 -90 -6 -18 -11 -93 -12
-165 -1 -73 -5 -141 -10 -152 -8 -20 -8 -20 -8 1 -1 11 -6 25 -13 32 -8 8 -8
15 1 26 9 10 12 43 10 100 -2 47 0 88 4 92 11 11 8 21 -9 38 -31 31 -54 7 -31
-31 5 -7 3 -21 -3 -32 -5 -11 -11 -41 -11 -68 -1 -26 -3 -40 -6 -30 -15 56
-32 -16 -36 -155 -3 -78 -12 -95 -22 -41 -4 20 -15 43 -26 51 -10 7 -19 22
-19 33 0 10 -3 19 -8 19 -4 0 -9 -37 -10 -82 -7 -203 -12 -215 -71 -162 -32
28 -41 70 -21 90 7 7 6 20 -4 39 -14 26 -14 32 -1 52 22 33 30 237 10 253 -8
7 -15 19 -15 26 0 8 -4 14 -10 14 -6 0 -9 -35 -8 -87 2 -152 -2 -248 -11 -262
-14 -22 -105 3 -144 39 -18 16 -35 30 -39 30 -9 0 -12 -28 -9 -82 2 -20 -5
-61 -15 -92 -14 -44 -15 -63 -7 -90 8 -24 7 -46 0 -75 -8 -30 -8 -53 1 -88 12
-48 11 -86 -3 -194 -5 -37 -3 -63 4 -78 7 -12 8 -27 4 -34 -4 -6 -9 -79 -10
-162 -3 -252 -8 -405 -13 -405 -11 0 -70 84 -70 98 0 23 -41 84 -82 122 -21
19 -38 39 -38 45 0 11 -144 161 -209 218 -24 20 -49 37 -56 37 -8 0 -15 4 -17
9 -1 5 -19 18 -38 28 -19 11 -55 46 -80 78 -64 85 -210 226 -316 306 -50 38
-94 69 -98 69 -5 0 -30 11 -57 25 l-49 24 0 -5964 0 -5965 10240 0 10240 0 0
7084 c0 6740 -1 7084 -17 7082 -10 0 -21 -5 -25 -11 -5 -6 -11 -5 -16 3 -7 10
-11 10 -22 -3 -11 -13 -10 -15 3 -9 11 4 15 0 13 -13 -2 -10 -9 -18 -17 -19
-8 0 -23 -2 -34 -3 -11 0 -40 -19 -65 -42 -25 -22 -35 -35 -23 -29 27 13 43
13 43 0 0 -5 -9 -10 -21 -10 -42 0 -119 -62 -119 -96 0 -22 -21 -47 -36 -42
-18 5 -59 -16 -87 -43 -16 -16 -37 -29 -48 -29 -18 0 -42 -36 -33 -51 2 -3 -3
-6 -11 -6 -12 0 -12 3 -2 15 10 13 9 14 -4 6 -28 -16 -79 -62 -79 -72 0 -5
-11 -14 -24 -22 -14 -7 -22 -18 -19 -26 4 -10 -3 -14 -21 -14 -19 0 -26 -5
-26 -19 0 -11 -4 -23 -10 -26 -5 -3 -7 0 -4 8 3 8 1 18 -5 22 -6 3 -11 -1 -11
-9 0 -8 -12 -21 -27 -28 -15 -7 -30 -23 -33 -36 -3 -13 -9 -23 -15 -24 -5 0
-19 -5 -30 -11 -11 -6 -26 -10 -33 -8 -10 1 -12 -4 -7 -18 4 -13 2 -21 -5 -21
-6 0 -9 4 -6 9 3 5 0 14 -8 20 -10 9 -15 8 -20 -4 -3 -8 -12 -15 -19 -15 -19
0 -50 -36 -43 -49 4 -5 2 -12 -4 -16 -5 -3 -10 -1 -10 5 0 13 -50 -14 -85 -46
-13 -12 -30 -24 -40 -27 -11 -5 -14 -13 -10 -27 5 -15 2 -20 -12 -20 -15 0
-16 2 -3 10 12 8 11 10 -7 10 -14 0 -23 -6 -23 -15 0 -9 -9 -15 -22 -15 -14 0
-33 -13 -47 -31 -13 -16 -30 -28 -37 -25 -8 3 -11 0 -7 -10 3 -7 1 -14 -5 -14
-6 0 -12 5 -14 12 -3 9 -6 9 -12 0 -4 -7 -2 -12 3 -12 12 0 15 -30 4 -31 -5 0
-21 -2 -37 -3 -16 -1 -31 -7 -34 -14 -2 -7 -17 -19 -32 -27 -34 -18 -44 -19
-35 -5 11 18 -6 11 -37 -15 -16 -14 -36 -25 -43 -25 -8 0 -19 -8 -24 -19 -6
-10 -25 -26 -43 -35 -70 -37 -83 -46 -83 -58 0 -7 -11 -13 -25 -13 -43 -1 -70
-14 -63 -32 5 -13 2 -15 -11 -10 -10 4 -22 7 -27 7 -5 0 -9 7 -9 15 0 19 -4
19 -46 -1 -21 -10 -34 -24 -34 -35 0 -11 -4 -19 -10 -19 -5 0 -10 5 -10 11 0
5 -4 8 -9 5 -5 -4 -11 0 -14 6 -6 18 -18 5 -20 -21 -1 -11 -5 -21 -9 -21 -4 0
-5 -7 -2 -15 5 -11 2 -13 -10 -9 -9 3 -16 10 -16 15 0 5 -6 9 -14 9 -8 0 -16
7 -18 15 -3 13 -6 13 -32 0 -34 -18 -37 -18 -35 -2 4 32 -1 40 -16 27 -9 -7
-13 -21 -10 -30 3 -9 -1 -23 -10 -30 -8 -7 -12 -17 -8 -24 3 -6 0 -5 -8 2 -11
10 -11 16 0 33 10 17 10 24 0 33 -9 8 -10 8 -4 -3 6 -11 3 -13 -13 -9 -16 5
-22 2 -22 -10 -1 -38 -19 15 -21 61 -2 26 -7 47 -11 47 -5 0 -8 -6 -7 -12 4
-33 -2 -47 -16 -41 -9 3 -15 2 -14 -3 5 -29 -3 -37 -16 -14 -8 14 -12 37 -9
52 7 36 -3 53 -22 37 -8 -6 -14 -8 -14 -4 0 4 7 13 17 20 16 12 10 40 -7 30
-4 -3 -10 9 -12 25 -3 17 -2 30 1 30 3 0 6 42 7 94 0 52 -3 93 -8 90 -4 -3 -8
-11 -8 -19 0 -15 -18 -24 -40 -18 -11 3 -15 18 -15 50 0 28 -5 48 -12 51 -20
6 -15 22 7 22 11 0 20 5 20 10 0 6 -6 10 -14 10 -25 0 -36 66 -15 87 7 7 8 19
3 30 -14 33 -12 87 4 99 14 10 14 13 1 26 -8 8 -19 13 -25 11 -8 -3 -11 20 -8
78 2 61 -1 87 -12 105 -25 37 -5 53 23 18 13 -16 23 -24 22 -19 -1 6 0 17 4
25 10 28 14 157 5 174 -6 11 -6 22 2 31 8 10 9 19 0 35 -6 11 -9 28 -6 38 11
38 17 192 6 192 -5 0 -10 -19 -11 -42 0 -24 -3 -74 -6 -113 -4 -38 -5 -94 -4
-122 1 -29 -3 -53 -8 -53 -5 0 -7 -19 -4 -42 3 -33 2 -39 -6 -26 -8 11 -9 72
-5 185 6 180 7 221 5 268 -1 17 -2 39 -1 50 0 11 1 52 1 90 0 39 1 75 1 80 0
6 -3 32 -7 58 l-8 49 29 -5 c19 -2 35 3 47 15 9 10 13 18 8 18 -5 0 -11 8 -14
18 -3 13 -6 11 -15 -10 -6 -16 -16 -28 -22 -28 -13 0 -1 61 16 81 8 8 14 26
14 40 -1 23 -1 23 -15 5 -10 -13 -15 -15 -15 -6 0 10 -4 8 -13 -5 -13 -16 -15
-13 -20 30 -4 26 -7 61 -7 77 0 22 -4 28 -17 26 -23 -4 -30 32 -9 48 14 10 15
19 7 54 -5 24 -14 46 -20 49 -5 4 -6 12 -2 19 12 19 1 61 -14 56 -14 -6 -36
42 -40 88 -2 18 -3 39 -4 46 -1 6 -5 12 -11 12 -5 0 -6 -7 -3 -17 4 -11 3 -14
-5 -9 -7 4 -12 16 -12 27 0 13 4 18 11 13 9 -5 10 1 5 22 -4 16 -7 37 -7 48 0
13 -5 17 -20 13 -12 -3 -19 0 -19 9 0 8 -4 14 -8 14 -4 0 -14 28 -22 63 -7 34
-15 54 -17 45 -3 -12 -14 -18 -33 -18 -22 0 -30 6 -40 33 -24 61 -41 96 -50
102 -6 3 -10 14 -10 23 0 29 -44 102 -59 99 -9 -1 -23 17 -35 48 -12 28 -29
59 -39 69 -9 11 -22 34 -29 52 -7 20 -16 30 -25 27 -12 -5 -17 7 -14 35 1 7
-4 11 -11 10 -7 -2 -12 5 -12 14 1 9 -8 19 -21 22 -13 3 -28 19 -35 38 -7 18
-20 41 -28 50 -8 10 -12 24 -9 33 4 9 1 15 -9 15 -14 0 -74 54 -74 67 0 2 -10
14 -22 27 -13 13 -32 36 -42 50 -17 23 -21 25 -28 11 -5 -8 -6 -21 -2 -28 6
-8 3 -8 -9 1 -14 12 -14 17 -2 35 12 19 11 25 -3 43 -26 31 -47 18 -22 -14 18
-23 19 -27 5 -34 -21 -12 -35 -1 -35 28 0 24 -3 26 -50 28 -18 1 -26 7 -28 25
-4 22 -6 23 -68 18 -36 -2 -64 0 -64 5 0 5 -4 7 -9 4 -5 -3 -12 5 -15 19 -7
27 -16 31 -32 15z m396 -235 c6 -8 10 -19 8 -24 -1 -5 -11 2 -21 15 -19 26 -8
34 13 9z m50 -46 c0 -6 -4 -7 -10 -4 -5 3 -10 11 -10 16 0 6 5 7 10 4 6 -3 10
-11 10 -16z m-40 -19 c0 -5 -4 -10 -10 -10 -5 0 -10 5 -10 10 0 6 5 10 10 10
6 0 10 -4 10 -10z m90 -72 c17 -31 19 -39 7 -29 -9 7 -17 20 -17 28 0 12 -3
13 -14 4 -11 -9 -13 -6 -13 14 0 36 10 31 37 -17z m-13750 -12 c0 -2 -8 -10
-17 -17 -16 -13 -17 -12 -4 4 13 16 21 21 21 13z m13810 -76 c0 -5 -4 -10 -9
-10 -6 0 -13 5 -16 10 -3 6 1 10 9 10 9 0 16 -4 16 -10z m250 -331 c0 -14 -17
-10 -23 5 -4 10 -1 13 9 9 7 -3 14 -9 14 -14z m12 -81 c-9 -9 -12 -7 -12 12 0
19 3 21 12 12 9 -9 9 -15 0 -24z m28 -18 c0 -5 -4 -10 -10 -10 -5 0 -10 5 -10
10 0 6 5 10 10 10 6 0 10 -4 10 -10z m100 -125 c0 -26 -3 -33 -15 -29 -18 7
-20 35 -3 52 17 17 18 16 18 -23z m23 -87 c6 -22 5 -22 -8 -4 -17 22 -20 40
-6 32 5 -3 11 -16 14 -28z m-15086 -70 c-3 -8 -6 -5 -6 6 -1 11 2 17 5 13 3
-3 4 -12 1 -19z m15113 -19 c0 -6 -4 -7 -10 -4 -5 3 -10 11 -10 16 0 6 5 7 10
4 6 -3 10 -11 10 -16z m2470 -1239 c0 -5 -5 -10 -11 -10 -5 0 -7 5 -4 10 3 6
8 10 11 10 2 0 4 -4 4 -10z m-80 -90 c0 -5 -5 -10 -11 -10 -5 0 -7 5 -4 10 3
6 8 10 11 10 2 0 4 -4 4 -10z m-17983 -182 c-3 -7 -5 -2 -5 12 0 14 2 19 5 13
2 -7 2 -19 0 -25z m17763 -3 c-7 -8 -17 -15 -23 -15 -6 0 -2 7 9 15 25 19 30
19 14 0z m-1993 -287 c-2 -13 -4 -3 -4 22 0 25 2 35 4 23 2 -13 2 -33 0 -45z
m1668 43 c-3 -6 -11 -11 -17 -11 -6 0 -6 6 2 15 14 17 26 13 15 -4z m-175
-121 c-24 -15 -36 -11 -14 4 10 8 21 12 24 10 2 -3 -2 -9 -10 -14z m-91 -59
c-13 -11 -26 -17 -29 -14 -3 2 6 13 20 23 32 24 40 16 9 -9z m-39 -25 c0 -3
-4 -8 -10 -11 -5 -3 -10 -1 -10 4 0 6 5 11 10 11 6 0 10 -2 10 -4z m-1295
-126 c3 -5 1 -10 -4 -10 -6 0 -11 5 -11 10 0 6 2 10 4 10 3 0 8 -4 11 -10z
m1107 -12 c-7 -7 -12 -8 -12 -2 0 14 12 26 19 19 2 -3 -1 -11 -7 -17z m-1075
-54 c7 -19 -9 -76 -22 -81 -6 -2 -11 18 -12 47 -1 37 3 50 13 50 8 0 17 -7 21
-16z m813 -94 c0 -5 -5 -10 -11 -10 -5 0 -7 5 -4 10 3 6 8 10 11 10 2 0 4 -4
4 -10z m-100 -60 c0 -5 -5 -10 -11 -10 -5 0 -7 5 -4 10 3 6 8 10 11 10 2 0 4
-4 4 -10z m-670 -30 c0 -5 -5 -10 -11 -10 -5 0 -7 5 -4 10 3 6 8 10 11 10 2 0
4 -4 4 -10z m275 -130 c3 -5 1 -10 -4 -10 -6 0 -11 5 -11 10 0 6 2 10 4 10 3
0 8 -4 11 -10z"/>
<path d="M4039 16499 l-24 -20 28 17 c15 9 27 18 27 20 0 8 -8 4 -31 -17z"/>
<path d="M3970 16449 l-35 -30 38 26 c33 24 43 35 34 35 -1 0 -18 -14 -37 -31z"/>
<path d="M3904 16398 l-19 -23 23 19 c21 18 27 26 19 26 -2 0 -12 -10 -23 -22z"/>
<path d="M18070 15075 c0 -8 4 -15 10 -15 5 0 7 7 4 15 -4 8 -8 15 -10 15 -2
0 -4 -7 -4 -15z"/>
<path d="M13540 14803 c-70 -7 -197 -35 -274 -59 -534 -170 -894 -658 -970
-1314 -23 -196 -23 -1651 -1 -1845 45 -386 184 -714 400 -943 l74 -79 -88
-155 c-128 -224 -326 -600 -685 -1305 l-317 -621 -62 24 c-150 59 -293 76
-416 50 -267 -57 -557 -314 -721 -641 -77 -152 -104 -255 -98 -374 3 -71 9
-95 33 -139 73 -134 225 -202 455 -203 103 0 192 12 261 36 23 8 45 15 49 15
4 0 3 -21 -1 -47 -21 -129 -4 -355 38 -488 69 -222 224 -375 422 -416 84 -17
231 -6 318 24 213 75 377 204 868 687 373 366 496 485 797 768 222 209 248
237 263 282 14 42 14 54 3 77 -17 35 -52 53 -104 53 -79 0 -163 -44 -325 -170
-134 -104 -272 -233 -761 -711 -538 -525 -639 -613 -788 -682 -138 -63 -263
-41 -330 60 -60 91 -85 222 -77 407 4 109 11 152 40 256 46 163 96 293 140
361 72 113 266 531 282 609 4 19 135 290 291 602 156 311 380 768 499 1015
119 246 220 451 224 455 4 5 36 -7 71 -26 234 -123 551 -172 850 -131 180 24
294 60 453 142 364 188 626 558 725 1023 45 212 47 252 47 1140 0 931 0 938
-65 1187 -80 307 -211 538 -419 735 -250 236 -558 351 -931 346 -74 -1 -151
-3 -170 -5z m356 -748 c98 -25 218 -90 290 -158 114 -106 183 -228 233 -407
l26 -95 3 -825 c3 -879 2 -916 -45 -1065 -71 -225 -196 -381 -378 -471 -122
-60 -208 -77 -360 -71 -152 6 -252 36 -359 107 -170 115 -276 286 -326 528
-20 101 -21 123 -18 945 l3 842 27 99 c92 335 302 538 606 586 74 11 222 4
298 -15z m-2379 -5774 c23 -6 45 -15 47 -20 3 -5 -30 -82 -73 -172 -43 -90
-102 -222 -131 -294 -46 -112 -60 -137 -104 -180 -95 -92 -227 -145 -361 -145
-84 0 -178 21 -205 45 -40 36 -19 142 60 292 108 207 295 399 456 468 75 33
207 35 311 6z"/>
<path d="M9325 14730 l-500 -5 -3 -2244 c-1 -1235 1 -2248 5 -2252 5 -3 153
-4 331 -1 l322 5 0 928 0 929 319 0 318 0 136 -287 c75 -159 271 -574 436
-923 l299 -635 389 4 c213 2 389 5 391 6 2 2 -204 426 -457 942 -254 517 -461
944 -461 949 0 5 26 19 58 32 152 59 349 218 450 365 154 224 232 476 248 803
36 734 -331 1283 -921 1379 -95 16 -268 16 -1360 5z m1316 -736 c124 -59 216
-183 261 -353 15 -57 20 -109 20 -206 1 -218 -50 -378 -158 -495 -65 -69 -149
-115 -239 -130 -33 -6 -278 -10 -552 -10 l-493 0 0 610 0 610 183 3 c100 2
346 3 547 3 l365 -1 66 -31z"/>
<path d="M6055 14700 c-357 -4 -651 -8 -652 -9 -2 0 -3 -1014 -3 -2252 l0
-2252 53 7 c28 3 175 6 325 6 l272 0 0 869 0 868 38 7 c20 3 235 6 477 6 543
0 644 10 836 80 276 101 505 314 639 595 143 301 185 717 109 1089 -105 518
-442 874 -919 971 -100 21 -367 24 -1175 15z m1038 -715 c186 -39 332 -192
392 -410 26 -95 31 -322 11 -426 -42 -206 -147 -360 -296 -435 -99 -50 -147
-53 -665 -54 l-480 -1 -3 665 -2 666 327 3 c181 1 400 3 488 4 109 2 182 -2
228 -12z"/>
<path d="M18107 14683 c-2 -5 -1 -19 4 -33 7 -23 7 -23 8 8 1 31 -3 40 -12 25z"/>
<path d="M18116 14584 c-4 -9 -4 -19 -1 -22 2 -3 7 3 11 12 4 9 4 19 1 22 -2
3 -7 -3 -11 -12z"/>
<path d="M18115 14430 c0 -78 9 -107 17 -52 5 37 -2 132 -10 132 -4 0 -7 -36
-7 -80z"/>
<path d="M20452 14220 c-25 -24 -28 -36 -9 -42 16 -6 37 1 37 13 0 4 -7 6 -15
3 -21 -8 -19 6 2 22 10 7 15 15 12 18 -3 3 -15 -3 -27 -14z"/>
<path d="M2261 13940 c0 -8 4 -22 9 -30 12 -18 12 -2 0 25 -6 13 -9 15 -9 5z"/>
<path d="M18115 13660 c3 -5 8 -10 11 -10 2 0 4 5 4 10 0 6 -5 10 -11 10 -5 0
-7 -4 -4 -10z"/>
<path d="M19645 13550 c-3 -5 -1 -10 4 -10 6 0 11 5 11 10 0 6 -2 10 -4 10 -3
0 -8 -4 -11 -10z"/>
<path d="M18238 12963 c7 -3 16 -2 19 1 4 3 -2 6 -13 5 -11 0 -14 -3 -6 -6z"/>
<path d="M18550 12955 c-11 -13 -10 -14 4 -9 9 3 16 10 16 15 0 13 -6 11 -20
-6z"/>
<path d="M17025 9471 c-33 -42 -224 -271 -425 -511 -466 -555 -438 -519 -420
-530 12 -8 11 -10 -6 -10 -30 0 7 42 -657 -760 -372 -448 -910 -1070 -1662
-1920 -204 -231 -614 -697 -785 -894 -182 -209 -981 -1119 -1022 -1163 l-39
-43 756 0 756 0 27 32 c15 18 140 160 277 318 138 157 338 386 445 510 327
375 750 861 820 940 611 690 1184 1359 1595 1860 38 47 145 176 237 287 l168
202 -2 879 -3 879 -60 -76z"/>
<path d="M8153 9036 c-169 -55 -330 -170 -608 -435 -315 -301 -693 -733 -1009
-1154 -49 -65 -90 -116 -92 -114 -3 3 77 282 155 537 78 259 102 358 108 450
5 75 3 91 -16 128 -53 104 -154 106 -351 7 -354 -178 -872 -652 -1142 -1045
-118 -172 -140 -239 -98 -307 31 -51 108 -63 156 -25 12 9 50 60 84 112 228
344 526 650 883 908 99 72 205 137 212 131 2 -2 -21 -85 -51 -184 -30 -99 -91
-301 -135 -450 -44 -148 -90 -295 -104 -325 -13 -30 -24 -68 -23 -85 0 -26
-91 -356 -154 -555 -11 -36 -54 -134 -95 -218 -176 -362 -343 -850 -436 -1273
-39 -174 -41 -199 -19 -238 20 -37 73 -71 110 -71 38 0 88 26 110 57 52 73
326 844 503 1413 66 215 73 232 153 365 47 78 93 152 104 164 l19 24 69 -16
c150 -35 271 -30 441 19 342 98 821 472 1052 819 83 126 429 818 472 945 37
109 50 242 29 305 -17 52 -74 113 -118 125 -58 16 -131 11 -209 -14z m87 -240
c0 -7 -11 -48 -25 -90 -29 -90 -384 -795 -446 -888 -162 -242 -479 -518 -755
-657 -128 -65 -234 -94 -346 -95 -47 -1 -89 2 -93 6 -13 13 380 524 603 783
307 357 701 742 881 862 54 36 160 93 174 93 4 0 7 -6 7 -14z"/>
<path d="M9110 8455 c-145 -40 -267 -120 -394 -257 -264 -284 -415 -702 -325
-898 37 -79 71 -115 144 -151 112 -55 263 -52 414 10 128 52 286 174 417 321
37 41 70 76 74 78 3 1 11 -24 18 -56 35 -172 178 -330 359 -398 146 -56 355
-70 490 -34 94 24 109 33 122 70 13 38 1 73 -31 94 -28 18 -159 50 -296 71
-254 40 -357 120 -382 295 -18 128 23 387 74 468 52 83 96 180 96 213 0 46
-30 92 -73 112 -41 20 -62 21 -106 6 -28 -10 -35 -9 -57 11 -36 35 -130 51
-319 56 -132 3 -182 0 -225 -11z m423 -292 c-54 -133 -233 -380 -396 -550
-161 -167 -269 -233 -394 -241 -50 -3 -78 -1 -88 8 -20 17 -20 114 1 194 58
226 289 533 464 619 91 45 145 54 317 56 l131 1 -35 -87z"/>
</g>
</svg>
